<?xml version="1.0" standalone="no"?>
<!DOCTYPE svg PUBLIC "-//W3C//DTD SVG 20010904//EN"
 "http://www.w3.org/TR/2001/REC-SVG-20010904/DTD/svg10.dtd">
<svg version="1.0" xmlns="http://www.w3.org/2000/svg"
 width="240.000000pt" height="320.000000pt" viewBox="0 0 240.000000 320.000000"
 preserveAspectRatio="xMidYMid meet">

<g transform="translate(0.000000,320.000000) scale(0.100000,-0.100000)"
fill="#000000" stroke="none">
<path d="M1250 3069 c-31 -3 -65 -11 -77 -18 -12 -6 -62 -25 -110 -42 -48 -17
-104 -44 -123 -59 -37 -29 -77 -52 -123 -71 -18 -7 -26 -17 -23 -25 3 -8 -9
-30 -26 -49 -29 -33 -29 -37 -14 -54 9 -10 13 -21 9 -25 -4 -4 14 -26 39 -50
44 -40 49 -42 70 -30 91 54 133 67 208 68 68 1 78 -1 103 -25 15 -15 40 -29
55 -33 15 -3 48 -26 74 -50 43 -40 47 -47 41 -80 -5 -30 -3 -36 12 -36 12 0
16 -6 12 -20 -3 -11 -2 -18 3 -15 4 3 7 -6 6 -20 0 -14 -4 -25 -9 -25 -19 0
22 -42 58 -60 22 -11 33 -20 25 -21 -9 0 -5 -4 8 -9 12 -5 22 -17 22 -26 0
-25 23 -88 35 -96 13 -9 -8 -44 -24 -41 -6 2 -11 -6 -11 -17 0 -12 7 -20 16
-20 13 0 14 -3 5 -14 -7 -8 -13 -33 -14 -55 -1 -23 -5 -41 -9 -41 -4 0 -8 -5
-8 -11 0 -5 5 -7 10 -4 6 3 10 -5 10 -19 0 -14 -4 -28 -10 -31 -5 -3 -10 -1
-10 4 0 6 -4 11 -10 11 -5 0 -10 -9 -10 -21 0 -11 5 -17 10 -14 16 10 12 -11
-5 -25 -10 -8 -28 -10 -52 -5 -31 5 -35 4 -25 -7 9 -11 4 -21 -21 -45 -46 -44
-77 -83 -77 -96 0 -9 -2 -9 -8 0 -6 10 -14 9 -36 -2 -16 -8 -32 -15 -38 -15
-16 0 -67 -43 -62 -52 3 -4 3 -8 0 -8 -3 0 -17 25 -31 55 -26 57 -70 95 -111
95 -29 0 -37 25 -22 66 9 27 9 38 -2 59 -15 28 -19 27 -25 -4 -12 -63 -13 -64
-70 -57 -29 3 -62 9 -72 12 -15 5 -15 4 -3 -5 23 -16 -17 -27 -44 -12 l-21 12
21 -18 c16 -15 19 -23 11 -40 -14 -33 -1 -72 22 -66 12 3 23 -2 29 -14 17 -31
24 -116 13 -161 -8 -37 -6 -50 12 -85 29 -56 105 -107 158 -107 31 0 39 -4 39
-18 0 -22 60 -102 76 -102 7 0 14 -6 17 -12 3 -9 7 -7 12 5 7 17 11 15 40 -13
18 -17 42 -32 54 -33 11 -1 21 -5 21 -10 0 -5 -8 -6 -17 -3 -15 6 -14 3 3 -16
11 -13 30 -34 42 -47 12 -14 22 -28 22 -32 0 -4 31 7 70 25 67 31 73 37 157
152 206 284 217 304 211 381 -4 41 -11 60 -31 81 -22 23 -26 34 -21 60 7 35
-5 42 -26 16 -8 -9 -25 -14 -44 -12 -26 3 -32 8 -34 32 -5 39 14 72 55 97 27
17 33 27 33 55 0 44 23 55 50 23 19 -23 19 -23 20 -3 0 11 -13 33 -30 49 -35
33 -37 43 -12 52 9 3 25 13 34 21 12 10 28 12 57 7 39 -6 49 -14 34 -28 -3 -4
-12 -2 -20 4 -10 9 -13 5 -13 -19 0 -60 -22 -135 -47 -160 -13 -13 -22 -26
-20 -28 8 -8 56 37 63 58 3 12 13 37 22 57 9 20 15 41 13 46 -1 6 1 7 5 3 4
-4 13 0 21 10 12 15 13 14 7 -13 -4 -16 -28 -63 -55 -103 -26 -40 -43 -72 -36
-69 24 8 107 159 107 194 0 19 -4 32 -8 29 -5 -3 -6 8 -4 24 3 22 -2 32 -20
44 -21 14 -31 14 -77 2 -30 -8 -66 -26 -84 -43 -56 -51 -67 -58 -67 -40 0 26
62 89 107 109 39 17 45 17 79 3 20 -8 39 -14 41 -12 2 2 10 35 17 73 8 38 22
103 31 144 15 66 15 85 4 160 -7 47 -14 92 -14 101 0 9 -5 22 -11 30 -6 8 -21
39 -33 70 -72 182 -334 299 -601 268z m163 -674 c-3 -9 -8 -14 -10 -11 -3 3
-2 9 2 15 9 16 15 13 8 -4z m242 -325 c22 -24 14 -61 -21 -103 l-25 -30 7 27
c7 30 -9 36 -25 9 -15 -25 -3 41 15 85 15 37 24 40 49 12z m-790 -320 c3 -6
-1 -7 -9 -4 -18 7 -21 14 -7 14 6 0 13 -4 16 -10z m208 -61 c39 -44 -8 -74
-62 -40 -13 9 -40 14 -62 12 -50 -3 -49 5 4 29 56 26 98 25 120 -1z m-18 -99
c-3 -5 -13 -10 -21 -10 -8 0 -12 5 -9 10 3 6 13 10 21 10 8 0 12 -4 9 -10z"/>
<path d="M728 2325 c-10 -21 -7 -30 15 -62 18 -25 23 -41 17 -47 -18 -18 -11
-28 15 -24 24 5 29 -1 26 -29 -1 -6 3 -14 7 -17 5 -3 15 14 21 37 11 36 10 49
-4 85 -16 39 -56 82 -77 82 -4 0 -14 -11 -20 -25z"/>
<path d="M874 2321 c-12 -13 0 -53 27 -87 17 -22 28 -46 26 -56 -4 -14 -2 -16
13 -8 29 15 67 -4 74 -37 10 -43 53 -63 110 -51 25 5 46 14 46 18 0 5 6 7 14
4 7 -3 16 2 20 12 5 12 9 14 20 5 14 -12 46 -5 46 10 0 5 6 9 14 9 9 0 12 8 8
25 -3 16 0 25 8 25 10 0 10 3 0 15 -7 9 -15 13 -18 11 -2 -3 -16 9 -30 25 -16
19 -32 29 -43 26 -9 -3 -37 7 -61 20 -23 14 -54 27 -68 30 -32 6 -200 9 -206
4z m286 -116 l45 -15 -50 6 c-27 4 -54 10 -59 15 -15 13 13 11 64 -6z m106
-15 c8 0 14 -5 14 -11 0 -7 -8 -9 -22 -4 -13 3 -28 7 -35 7 -7 1 -10 5 -7 10
4 5 13 7 21 4 8 -3 21 -6 29 -6z"/>
<path d="M1495 2181 c-6 -11 9 -23 19 -14 9 9 7 23 -3 23 -6 0 -12 -4 -16 -9z"/>
<path d="M870 1969 c0 -5 5 -7 10 -4 6 3 10 8 10 11 0 2 -4 4 -10 4 -5 0 -10
-5 -10 -11z"/>
<path d="M1029 1258 c-9 -7 -19 -20 -22 -29 -4 -13 -1 -15 15 -11 21 5 32 24
26 42 -2 7 -9 6 -19 -2z"/>
<path d="M1720 1150 c-6 -11 -8 -20 -6 -20 3 0 10 9 16 20 6 11 8 20 6 20 -3
0 -10 -9 -16 -20z"/>
<path d="M928 1148 c-42 -11 -90 -63 -151 -163 -46 -75 -57 -113 -57 -193 0
-67 25 -134 55 -145 28 -11 16 -23 -20 -21 -23 2 -33 -1 -29 -7 3 -6 12 -8 20
-5 7 3 16 1 18 -3 3 -4 29 -4 58 0 28 5 54 6 57 4 2 -3 -1 -5 -7 -5 -13 0
-112 -89 -112 -102 0 -5 4 -7 9 -4 16 10 30 -19 33 -69 l3 -50 17 55 c22 70
52 118 79 128 20 8 132 -1 170 -13 11 -4 19 -14 19 -24 0 -20 45 -64 108 -106
24 -16 49 -36 55 -45 9 -13 112 -95 195 -155 9 -7 11 -55 2 -55 -5 0 -10 -8
-10 -17 0 -10 -9 -36 -19 -58 -10 -22 -21 -52 -25 -67 l-6 -28 79 0 79 0 7 58
c6 46 9 53 16 35 12 -34 19 -28 9 8 -10 35 -47 72 -63 62 -6 -4 -7 -1 -2 7 5
8 -1 19 -16 31 l-24 19 32 0 c34 0 107 52 156 109 91 108 103 194 47 324 -33
77 -99 163 -251 325 -33 34 -59 64 -59 67 0 3 8 5 18 5 25 0 82 37 82 54 0 8
7 21 15 30 10 10 12 17 4 21 -6 4 -26 -7 -44 -25 -19 -18 -58 -45 -87 -60
l-52 -27 -31 32 c-63 67 -259 105 -377 73z m373 -168 c-8 -4 -21 -5 -30 -2
-12 5 -10 8 9 12 29 8 40 3 21 -10z m34 -20 c3 -5 1 -10 -4 -10 -6 0 -11 5
-11 10 0 6 2 10 4 10 3 0 8 -4 11 -10z m159 -791 c-9 -16 -20 -10 -21 12 -2
17 1 18 12 9 8 -7 12 -16 9 -21z m-30 -130 c-21 -23 -34 -24 -34 -3 0 8 5 12
10 9 6 -3 15 6 22 22 9 23 12 25 15 10 3 -10 -3 -27 -13 -38z"/>
<path d="M2156 493 c-26 -90 -24 -87 -41 -73 -12 10 -21 8 -49 -14 -19 -14
-41 -26 -49 -26 -11 0 -11 -9 -3 -54 11 -54 26 -85 26 -53 0 42 75 -5 88 -55
7 -26 13 -31 46 -34 21 -2 46 -10 56 -19 9 -8 26 -15 37 -15 11 0 38 -14 59
-31 54 -43 74 -53 74 -37 0 7 -29 29 -65 48 -36 19 -65 38 -65 42 0 4 -9 10
-21 13 -11 4 -18 9 -16 12 3 2 15 0 26 -7 17 -9 21 -8 21 5 0 9 3 14 8 12 4
-3 13 1 20 9 11 12 10 14 -5 15 -21 2 -51 5 -74 7 -25 3 -32 32 -14 59 11 16
14 34 9 58 -4 23 -2 35 5 35 6 0 11 -5 11 -11 0 -8 5 -7 15 1 14 11 11 16 -22
34 -21 12 -38 28 -38 35 0 7 26 21 59 31 32 10 63 23 69 29 6 6 -12 2 -39 -8
-59 -22 -125 -37 -105 -23 11 8 11 10 0 14 -12 4 -12 8 0 22 10 12 11 20 4 27
-8 8 -16 -6 -27 -48z m-33 -111 c-6 -14 -25 -12 -30 4 -2 5 5 10 16 10 11 0
17 -5 14 -14z"/>
<path d="M460 450 c-13 -8 -13 -10 2 -10 9 0 20 5 23 10 8 13 -5 13 -25 0z"/>
<path d="M2285 344 c-18 -16 -22 -22 -9 -15 18 9 53 42 43 41 -2 -1 -17 -12
-34 -26z"/>
<path d="M1933 33 c-7 -15 -11 -28 -9 -31 6 -6 28 38 24 48 -2 5 -9 -3 -15
-17z"/>
<path d="M1570 23 c0 -13 5 -23 10 -23 13 0 13 11 0 30 -8 12 -10 11 -10 -7z"/>
</g>
</svg>
